HIERARCHY
ROOT Hips
{
  OFFSET 0 0 0
  CHANNELS 6 Xposition Yposition Zposition Zrotation Yrotation Xrotation
  JOINT LeftThigh
  {
    OFFSET 8.409438 0 -5.917753
    CHANNELS 3 Zrotation Yrotation Xrotation
    JOINT LeftLeg
    {
      OFFSET 0 0 -42.358652
      CHANNELS 3 Zrotation Yrotation Xrotation
      JOINT LeftFoot
      {
        OFFSET 0 0 -39.357303
        CHANNELS 3 Zrotation Yrotation Xrotation
      }
    }
  }
  JOINT RightThigh
  {
    OFFSET -8.409438 0 -5.917753
    CHANNELS 3 Zrotation Yrotation Xrotation
    JOINT RightLeg
    {
      OFFSET 0 0 -42.358652
      CHANNELS 3 Zrotation Yrotation Xrotation
      JOINT RightFoot
      {
        OFFSET 0 0 -39.357303
        CHANNELS 3 Zrotation Yrotation Xrotation
      }
    }
  }
  JOINT SpineLow
  {
    OFFSET 0 0 4.719101
    CHANNELS 3 Zrotation Yrotation Xrotation
    JOINT SpineMid
    {
      OFFSET 0 0 12.899191
      CHANNELS 3 Zrotation Yrotation Xrotation
      JOINT Chest
      {
        OFFSET 0 0 12.899191
        CHANNELS 3 Zrotation Yrotation Xrotation
        JOINT LeftShoulder
        {
          OFFSET 7.550562 1.41573 9.438202
          CHANNELS 3 Zrotation Yrotation Xrotation
          JOINT LeftArm
          {
            OFFSET 9.155056 0 4.247191
            CHANNELS 3 Zrotation Yrotation Xrotation
            JOINT LeftForearm
            {
              OFFSET 0 0 25.771955
              CHANNELS 3 Zrotation Yrotation Xrotation
              JOINT LeftHand
              {
                OFFSET 0 0 25.197169
                CHANNELS 3 Zrotation Yrotation Xrotation
              }
            }
          }
        }
        JOINT RightShoulder
        {
          OFFSET -7.550562 1.41573 9.438202
          CHANNELS 3 Zrotation Yrotation Xrotation
          JOINT RightArm
          {
            OFFSET -9.155056 0 4.247191
            CHANNELS 3 Zrotation Yrotation Xrotation
            JOINT RightForearm
            {
              OFFSET 0 0 -25.771955
              CHANNELS 3 Zrotation Yrotation Xrotation
              JOINT RightHand
              {
                OFFSET 0 0 -25.197169
                CHANNELS 3 Zrotation Yrotation Xrotation
              }
            }
          }
        }
        JOINT Neck
        {
          OFFSET 0 0 15.101124
          CHANNELS 3 Zrotation Yrotation Xrotation
          JOINT Head
          {
            OFFSET 0 0 11.325843
            CHANNELS 3 Zrotation Yrotation Xrotation
            End Site
            {
              OFFSET 0 0 14.157303
            }
          }
        }
      }
    }
  }
}
MOTION
Frames: 16
Frame Time: 0.0
0.0  93.25843  0.0  -10.536282  4.387884  -132.109527  -5.193337  -9.955064  24.948869  -16.154134  1.305968  15.568383  0.333315  2.410477  3.495023  21.643482  -32.895388  -104.901383  23.732558  29.933865  110.069764  15.282044  14.278217  5.370416  -3.348609  -2.568265  3.298488  -9.513207  -6.532151  9.38082  -9.513206  -6.53215  9.38082  8.747278  30.833512  25.659562  175.039191  36.907931  -144.958986  -16.236752  7.937742  50.747608  87.81311  -10.955408  -14.913887  -0.644953  0.227462  31.707362  36.392676  34.933611  29.095188  -9.762583  7.531239  -69.645832  93.412427  -0.466497  -37.621109  -21.406865  16.10983  7.667413  -16.156787  11.835025  6.299137  
0.0  93.25843  0.0  -10.418613  5.115346  -132.346303  -5.625031  -9.397284  24.794624  -16.126563  1.616928  16.188126  0.285792  2.365341  3.518005  22.048494  -32.895053  -105.518332  23.989818  30.361  110.399137  15.486301  14.154939  5.151415  -3.431766  -2.423144  3.577717  -9.741269  -6.083367  10.127603  -9.741269  -6.083366  10.127603  8.910565  30.402395  24.785245  172.683841  37.31744  -148.12156  -14.129232  5.973732  49.063548  87.270335  -10.811002  -13.597207  -0.41437  0.745175  31.564036  33.085555  32.304851  29.634638  -7.562988  6.290066  -68.712139  92.85193  -1.552353  -34.804947  -21.142802  15.317255  7.016208  -15.942701  11.264415  5.780059  
0.0  93.25843  0.0  -10.224718  5.394989  -132.642871  -5.583528  -9.152041  24.666855  -16.272369  1.905801  16.773133  0.225807  2.355818  3.528268  22.362741  -33.666321  -104.9279  23.84238  30.382249  109.959033  15.0013  14.319668  5.358728  -3.361366  -2.266541  3.983587  -9.554157  -5.608677  11.20498  -9.554157  -5.608678  11.20498  6.415494  30.181791  22.299816  170.521849  37.630104  -151.716525  -11.654598  2.827672  48.540491  84.795609  -10.690832  -13.853895  -0.740715  0.39701  30.570114  33.764167  29.806209  31.119897  -8.372533  6.29554  -66.963431  93.571074  -2.364124  -31.871695  -21.359256  14.036695  6.277749  -16.086559  10.325439  5.191637  
0.0  93.25843  0.0  -9.956081  5.363715  -132.501334  -5.174682  -9.188749  24.120541  -16.321137  2.208514  17.255036  0.151757  2.290427  3.555849  22.865582  -34.696714  -104.030338  23.456312  30.349302  109.340797  14.224848  14.684545  5.359644  -3.275698  -2.158877  4.257773  -9.320496  -5.291298  11.930117  -9.320496  -5.291298  11.930117  4.860924  29.9255  20.224094  165.890923  37.80878  -156.035608  -13.010024  -0.042294  47.727883  83.357151  -10.330441  -13.391261  -1.228997  0.471225  29.648714  36.694515  26.593914  32.461543  -10.802506  7.797955  -64.764656  94.736723  -2.462468  -28.893215  -21.520679  12.977493  5.733853  -16.195617  9.547068  4.753051  
0.0  93.25843  0.0  -9.469799  5.102123  -132.14578  -4.503614  -9.224135  23.378083  -16.282524  2.499131  17.633637  0.087158  2.227948  3.565955  23.469675  -35.46927  -102.779164  22.834774  30.318957  108.862785  13.588513  14.974116  5.34615  -3.112758  -2.041556  4.392434  -8.862431  -4.983834  12.268112  -8.862431  -4.983834  12.268112  3.580328  29.366323  19.061896  161.090262  38.148987  -159.711071  -16.245287  -1.448587  46.35328  82.812681  -10.648946  -13.187927  -1.46036  -0.138402  29.173462  39.524847  23.390816  33.585376  -14.151949  8.603271  -62.687809  95.266729  -2.96887  -26.320626  -21.763057  12.119255  5.588275  -16.374373  8.905409  4.619973  
0.0  93.25843  0.0  -9.00671  4.802123  -131.756894  -3.989375  -9.219636  22.610184  -16.039265  2.709847  17.930741  0.070702  2.188149  3.596212  23.676605  -36.260455  -100.873239  22.158672  30.248152  108.3815  13.227281  15.088033  5.36001  -2.984585  -1.945282  4.44457  -8.497226  -4.739456  12.3876  -8.497225  -4.739455  12.3876  3.0348  28.806328  18.568169  158.331602  38.776811  -161.948597  -18.144116  -1.633271  45.034014  81.882254  -10.854352  -13.108045  -1.55595  -0.657166  28.919105  41.95529  20.917023  34.788788  -17.478898  7.77487  -61.600053  95.259137  -3.944143  -24.120227  -21.895384  11.589068  5.667294  -16.475138  8.503207  4.663469  
0.0  93.25843  0.0  -8.479155  4.378901  -130.98001  -3.516598  -9.175413  21.49203  -15.678701  2.906775  18.091366  0.065515  2.14596  3.587779  23.67735  -36.845507  -98.630348  21.281946  30.003927  107.881077  12.856078  15.136344  5.280391  -2.907255  -1.878559  4.390046  -8.269682  -4.579812  12.224072  -8.269683  -4.579812  12.224072  3.340695  28.42768  18.710057  157.952645  38.95926  -162.185608  -18.060945  -1.646955  43.786046  81.10699  -10.75048  -12.922739  -1.452052  -0.53573  29.052746  43.396038  19.183742  35.056786  -19.968573  6.441175  -60.955881  94.666196  -5.107344  -22.421327  -21.794134  11.41348  5.867076  -16.403375  8.365052  4.804952  
0.0  93.25843  0.0  -7.974046  3.879914  -129.908327  -3.163634  -9.075968  20.123504  -15.258233  3.098191  18.081609  0.24302  2.07759  3.633639  23.39114  -37.267277  -96.052305  20.278605  29.586982  107.406773  12.404069  15.129529  5.116718  -2.846848  -1.812795  4.292038  -8.086142  -4.424671  11.943355  -8.086143  -4.424672  11.943356  3.909181  27.948551  18.890469  159.280191  39.100694  -161.081918  -16.534609  -1.237676  42.626777  80.467367  -10.522826  -12.894758  -1.425965  -0.194978  29.466295  43.350657  18.482697  34.30716  -21.002715  5.483743  -60.839236  94.543934  -5.936572  -20.990113  -21.603463  11.289533  6.122577  -16.265719  8.264603  4.988262  
0.0  93.25843  0.0  -7.465373  3.408719  -128.698234  -2.952047  -8.831559  18.64635  -14.795897  3.239818  17.895783  0.571852  1.940591  3.720291  22.741314  -37.530513  -92.982593  19.257421  29.097375  106.94173  11.868664  15.045069  4.887501  -2.754779  -1.741619  4.141753  -7.812693  -4.266185  11.517607  -7.812693  -4.266185  11.517607  4.152864  27.417966  19.244373  161.261805  39.344443  -159.413235  -14.658989  -0.664657  41.641015  80.313931  -10.02972  -12.964298  -1.920863  -0.017086  29.993342  42.093298  18.725378  33.277586  -20.545406  5.195557  -61.33113  94.56279  -6.740959  -19.781269  -21.550907  11.1972  6.498069  -16.233533  8.182601  5.265231  
0.0  93.25843  0.0  -6.884689  2.94181  -127.380135  -2.727109  -8.47682  17.116636  -14.203191  3.235495  17.568889  1.037388  1.795684  3.87919  21.741495  -37.713788  -89.368844  18.265649  28.473138  106.389144  11.109827  14.953147  4.614258  -2.632284  -1.649937  4.014682  -7.454699  -4.053059  11.151504  -7.454699  -4.053059  11.151504  3.761151  26.98009  19.187128  163.075884  39.592036  -157.987915  -13.228524  -0.314933  40.989574  80.30731  -9.452706  -13.20572  -2.582524  -0.53279  29.778151  40.392351  19.649763  32.777499  -19.422929  5.173442  -62.091175  94.721679  -7.444858  -18.808637  -21.63127  10.939552  6.74711  -16.297855  7.979531  5.444537  
0.0  93.25843  0.0  -6.220508  2.435567  -125.970204  -2.399482  -8.075362  15.556808  -13.463934  3.068378  17.115394  1.24758  1.670783  3.927249  20.46746  -37.849652  -85.286231  17.330913  27.660033  105.729038  9.981993  14.894023  4.300479  -2.477337  -1.518352  3.913615  -7.003611  -3.73237  10.850928  -7.003611  -3.73237  10.850928  2.9533  26.48935  18.853015  163.943063  39.950982  -157.059994  -12.834439  -0.343391  40.552264  80.260698  -8.779659  -13.717638  -3.347343  -1.574637  29.056383  39.054683  20.931069  32.50336  -18.401015  5.085436  -62.80838  95.021984  -8.164126  -17.963686  -21.816934  10.439445  6.882058  -16.437949  7.59714  5.532075  
0.0  93.25843  0.0  -5.505057  1.950819  -124.481466  -2.009986  -7.684433  14.015868  -12.629827  2.821889  16.503671  2.017511  1.400847  4.320048  18.912256  -37.860972  -80.819107  16.500108  26.760322  104.981494  8.451002  14.899087  3.887619  -2.330089  -1.367482  3.782152  -6.570102  -3.359456  10.467302  -6.570102  -3.359455  10.467302  2.148596  26.039445  18.631867  163.662736  40.417698  -156.669647  -13.564312  -0.722953  40.188676  80.308372  -8.061042  -14.5082  -3.976108  -2.853229  28.298212  38.332582  22.2811  32.236343  -17.888942  4.942046  -63.230664  95.361277  -8.918889  -16.916905  -21.901624  9.943692  7.080895  -16.503257  7.216707  5.665618  
0.0  93.25843  0.0  -4.7596  1.373011  -122.978546  -1.594415  -7.326086  12.55224  -11.762688  2.602196  15.679682  2.150654  1.263762  4.313102  17.225013  -37.744206  -76.044708  15.814505  25.92509  104.130482  6.634895  14.93285  3.391692  -2.247906  -1.22248  3.655424  -6.316912  -2.990135  10.101889  -6.316912  -2.990135  10.10189  1.73708  25.817029  18.379968  162.805256  40.949228  -156.566578  -14.906907  -1.284994  39.925516  80.443372  -7.430283  -15.699629  -4.177236  -3.902353  27.497574  38.49447  23.509045  31.866414  -17.913418  4.867042  -63.34597  95.283622  -9.525689  -15.243604  -21.876326  9.507875  7.10578  -16.483154  6.888617  5.668952  
0.0  93.25843  0.0  -4.170231  0.515343  -121.386456  -0.971552  -7.362615  11.120866  -10.799051  2.403288  14.645888  2.157521  1.149616  4.41831  15.672266  -37.599238  -71.27644  15.286205  25.202003  103.142885  4.685393  14.920025  2.875103  -2.195336  -1.107243  3.549896  -6.151419  -2.694393  9.799677  -6.151419  -2.694393  9.799677  1.608617  25.574482  17.97142  161.855877  41.425519  -156.451639  -16.501445  -1.866013  39.874362  80.719588  -6.948818  -17.379498  -3.977816  -4.801082  26.64215  39.248825  24.625962  31.318379  -18.329564  4.758046  -63.338178  94.479357  -9.844987  -12.996555  -21.532667  9.066052  7.064074  -16.223486  6.561779  5.617177  
0.0  93.25843  0.0  -3.555339  -0.134254  -119.705873  -0.427964  -7.234755  9.644502  -10.022306  2.266083  13.528104  2.356719  1.078291  4.447255  13.993145  -36.862356  -66.573711  14.82497  24.5756  102.112574  2.786734  14.797614  2.321371  -2.14935  -1.000241  3.404788  -6.004845  -2.42318  9.39102  -6.004845  -2.42318  9.391021  1.342834  25.394534  17.659463  161.111334  41.898491  -156.233024  -18.154557  -2.17574  40.106573  81.476487  -6.369045  -19.101117  -3.938337  -5.35577  26.055803  40.379946  25.660845  30.558505  -19.140594  4.404653  -63.399904  93.250011  -9.852394  -10.386817  -21.411613  8.710448  6.948301  -16.129552  6.299916  5.516591  
0.0  93.25843  0.0  -2.949888  -0.941818  -118.054365  0.361043  -7.196149  8.173713  -9.448423  2.181762  12.421643  2.59392  1.02423  4.438403  12.505807  -35.742044  -62.017579  14.405623  24.031783  101.071284  1.185507  14.529461  1.810951  -2.044165  -0.929328  3.223373  -5.701943  -2.260852  8.885314  -5.701943  -2.260852  8.885313  0.86347  25.30192  17.499812  162.900419  41.758298  -155.810714  -17.839286  -1.755129  41.960115  82.475339  -5.69199  -20.526822  -4.258503  -5.583161  25.720483  41.381591  26.667655  29.49728  -19.914666  4.067618  -63.559876  92.135723  -9.983231  -7.588123  -21.371855  8.499591  6.913639  -16.098333  6.143114  5.482952  
